<svg width="10" height="10" viewBox="0 0 10 10" fill="none" xmlns="http://www.w3.org/2000/svg">
<path d="M7.77205 9.74441L5 8.00977L2.22795 9.7444C2.12724 9.8082 1.99734 9.80334 1.90037 9.73295C1.80367 9.66285 1.75931 9.54098 1.78849 9.4251L2.58156 6.2525L0.104762 4.15254C0.0131993 4.07586 -0.0225624 3.95111 0.0143517 3.83754C0.0512658 3.72367 0.153688 3.64385 0.272711 3.63555L3.50541 3.40981L4.7282 0.376838C4.81804 0.155393 5.18195 0.155393 5.27179 0.376838L6.49459 3.40981L9.72729 3.63555C9.84631 3.64385 9.94873 3.72367 9.98565 3.83754C10.0226 3.95111 9.9868 4.07586 9.89523 4.15254L7.41842 6.25254L8.21148 9.42514C8.24066 9.54102 8.19633 9.66289 8.09961 9.73299C8.00064 9.80486 7.87111 9.80649 7.77205 9.74441Z" fill="#F7AC16"/>
</svg>
